<mxfile host="Electron" agent="Mozilla/5.0 (Windows NT 10.0; Win64; x64) AppleWebKit/537.36 (KHTML, like Gecko) draw.io/24.7.8 Chrome/128.0.6613.36 Electron/32.0.1 Safari/537.36" version="24.7.8">
  <diagram name="Page-1" id="BnBCNnN_2u9kJFSG5PZl">
    <mxGraphModel dx="1323" dy="852" grid="0" gridSize="10" guides="1" tooltips="1" connect="1" arrows="1" fold="1" page="0" pageScale="1" pageWidth="850" pageHeight="1100" math="0" shadow="0">
      <root>
        <mxCell id="0" />
        <mxCell id="1" parent="0" />
        <mxCell id="3PqMV9A3EtNK-paQD4V4-64" value="User" style="shape=umlLifeline;perimeter=lifelinePerimeter;whiteSpace=wrap;container=1;dropTarget=0;collapsible=0;recursiveResize=0;outlineConnect=0;portConstraint=eastwest;newEdgeStyle={&quot;edgeStyle&quot;:&quot;elbowEdgeStyle&quot;,&quot;elbow&quot;:&quot;vertical&quot;,&quot;curved&quot;:0,&quot;rounded&quot;:0};participant=umlActor;verticalAlign=bottom;labelPosition=center;verticalLabelPosition=top;align=center;size=65;" vertex="1" parent="1">
          <mxGeometry x="20" y="20" width="35" height="755" as="geometry" />
        </mxCell>
        <mxCell id="3PqMV9A3EtNK-paQD4V4-65" value="Main" style="shape=umlLifeline;perimeter=lifelinePerimeter;whiteSpace=wrap;container=1;dropTarget=0;collapsible=0;recursiveResize=0;outlineConnect=0;portConstraint=eastwest;newEdgeStyle={&quot;edgeStyle&quot;:&quot;elbowEdgeStyle&quot;,&quot;elbow&quot;:&quot;vertical&quot;,&quot;curved&quot;:0,&quot;rounded&quot;:0};size=65;" vertex="1" parent="1">
          <mxGeometry x="225" y="20" width="150" height="755" as="geometry" />
        </mxCell>
        <mxCell id="3PqMV9A3EtNK-paQD4V4-66" value="Admin" style="shape=umlLifeline;perimeter=lifelinePerimeter;whiteSpace=wrap;container=1;dropTarget=0;collapsible=0;recursiveResize=0;outlineConnect=0;portConstraint=eastwest;newEdgeStyle={&quot;edgeStyle&quot;:&quot;elbowEdgeStyle&quot;,&quot;elbow&quot;:&quot;vertical&quot;,&quot;curved&quot;:0,&quot;rounded&quot;:0};size=65;" vertex="1" parent="1">
          <mxGeometry x="425" y="20" width="150" height="755" as="geometry" />
        </mxCell>
        <mxCell id="3PqMV9A3EtNK-paQD4V4-67" value="Siswa" style="shape=umlLifeline;perimeter=lifelinePerimeter;whiteSpace=wrap;container=1;dropTarget=0;collapsible=0;recursiveResize=0;outlineConnect=0;portConstraint=eastwest;newEdgeStyle={&quot;edgeStyle&quot;:&quot;elbowEdgeStyle&quot;,&quot;elbow&quot;:&quot;vertical&quot;,&quot;curved&quot;:0,&quot;rounded&quot;:0};size=65;" vertex="1" parent="1">
          <mxGeometry x="625" y="20" width="150" height="755" as="geometry" />
        </mxCell>
        <mxCell id="3PqMV9A3EtNK-paQD4V4-68" value="alt" style="shape=umlFrame;dashed=1;pointerEvents=0;dropTarget=0;strokeColor=#B3B3B3;height=20;width=30" vertex="1" parent="1">
          <mxGeometry x="84" y="422" width="595" height="248" as="geometry" />
        </mxCell>
        <mxCell id="3PqMV9A3EtNK-paQD4V4-69" value="[jika data valid]" style="text;strokeColor=none;fillColor=none;align=center;verticalAlign=middle;whiteSpace=wrap;" vertex="1" parent="3PqMV9A3EtNK-paQD4V4-68">
          <mxGeometry x="102" y="125" width="103" height="20" as="geometry" />
        </mxCell>
        <mxCell id="3PqMV9A3EtNK-paQD4V4-70" value="" style="shape=line;dashed=1;whiteSpace=wrap;verticalAlign=top;labelPosition=center;verticalLabelPosition=middle;align=center;strokeColor=#B3B3B3;" vertex="1" parent="3PqMV9A3EtNK-paQD4V4-68">
          <mxGeometry y="103" width="595" height="4" as="geometry" />
        </mxCell>
        <mxCell id="3PqMV9A3EtNK-paQD4V4-71" value="alt" style="shape=umlFrame;dashed=1;pointerEvents=0;dropTarget=0;strokeColor=#B3B3B3;height=20;width=30" vertex="1" parent="1">
          <mxGeometry x="74" y="303" width="649" height="377" as="geometry" />
        </mxCell>
        <mxCell id="3PqMV9A3EtNK-paQD4V4-72" value="[jika data menambah&#xa;data siswa]" style="text;strokeColor=none;fillColor=none;align=center;verticalAlign=middle;whiteSpace=wrap;" vertex="1" parent="3PqMV9A3EtNK-paQD4V4-71">
          <mxGeometry x="44.55377574370709" width="604.4462242562929" height="20" as="geometry" />
        </mxCell>
        <mxCell id="3PqMV9A3EtNK-paQD4V4-73" value="tambahDataSiswa()" style="verticalAlign=bottom;edgeStyle=elbowEdgeStyle;elbow=vertical;curved=0;rounded=0;endArrow=block;" edge="1" parent="1" source="3PqMV9A3EtNK-paQD4V4-64" target="3PqMV9A3EtNK-paQD4V4-65">
          <mxGeometry relative="1" as="geometry">
            <Array as="points">
              <mxPoint x="206" y="127" />
            </Array>
          </mxGeometry>
        </mxCell>
        <mxCell id="3PqMV9A3EtNK-paQD4V4-74" value="showMenu()" style="verticalAlign=bottom;edgeStyle=elbowEdgeStyle;elbow=vertical;curved=0;rounded=0;endArrow=block;" edge="1" parent="1" source="3PqMV9A3EtNK-paQD4V4-65" target="3PqMV9A3EtNK-paQD4V4-66">
          <mxGeometry relative="1" as="geometry">
            <Array as="points">
              <mxPoint x="409" y="179" />
            </Array>
          </mxGeometry>
        </mxCell>
        <mxCell id="3PqMV9A3EtNK-paQD4V4-75" value="inputData()" style="verticalAlign=bottom;edgeStyle=elbowEdgeStyle;elbow=vertical;curved=0;rounded=0;endArrow=block;" edge="1" parent="1" source="3PqMV9A3EtNK-paQD4V4-66" target="3PqMV9A3EtNK-paQD4V4-67">
          <mxGeometry relative="1" as="geometry">
            <Array as="points">
              <mxPoint x="609" y="231" />
            </Array>
          </mxGeometry>
        </mxCell>
        <mxCell id="3PqMV9A3EtNK-paQD4V4-76" value="data" style="verticalAlign=bottom;edgeStyle=elbowEdgeStyle;elbow=vertical;curved=0;rounded=0;dashed=1;dashPattern=2 3;endArrow=block;" edge="1" parent="1" source="3PqMV9A3EtNK-paQD4V4-67" target="3PqMV9A3EtNK-paQD4V4-66">
          <mxGeometry relative="1" as="geometry">
            <Array as="points">
              <mxPoint x="612" y="283" />
            </Array>
          </mxGeometry>
        </mxCell>
        <mxCell id="3PqMV9A3EtNK-paQD4V4-77" value="tampilkan()" style="verticalAlign=bottom;edgeStyle=elbowEdgeStyle;elbow=vertical;curved=0;rounded=0;endArrow=block;" edge="1" parent="1" source="3PqMV9A3EtNK-paQD4V4-65" target="3PqMV9A3EtNK-paQD4V4-64">
          <mxGeometry relative="1" as="geometry">
            <Array as="points">
              <mxPoint x="176" y="467" />
              <mxPoint x="204.24" y="472.5" />
            </Array>
            <mxPoint x="291.74" y="468" as="sourcePoint" />
            <mxPoint x="67" y="464" as="targetPoint" />
          </mxGeometry>
        </mxCell>
        <mxCell id="3PqMV9A3EtNK-paQD4V4-78" value="tampilkan()" style="verticalAlign=bottom;edgeStyle=elbowEdgeStyle;elbow=vertical;curved=0;rounded=0;endArrow=block;" edge="1" parent="1">
          <mxGeometry relative="1" as="geometry">
            <Array as="points" />
            <mxPoint x="299.61925925925937" y="518" as="sourcePoint" />
            <mxPoint x="499.36" y="518" as="targetPoint" />
          </mxGeometry>
        </mxCell>
        <mxCell id="3PqMV9A3EtNK-paQD4V4-79" value="tampilkan()" style="verticalAlign=bottom;edgeStyle=elbowEdgeStyle;elbow=vertical;curved=0;rounded=0;endArrow=block;" edge="1" parent="1" source="3PqMV9A3EtNK-paQD4V4-66" target="3PqMV9A3EtNK-paQD4V4-67">
          <mxGeometry relative="1" as="geometry">
            <Array as="points">
              <mxPoint x="608.05" y="579" />
            </Array>
            <mxPoint x="698.55" y="579" as="sourcePoint" />
            <mxPoint x="501" y="579" as="targetPoint" />
          </mxGeometry>
        </mxCell>
        <mxCell id="3PqMV9A3EtNK-paQD4V4-80" value="hasil" style="verticalAlign=bottom;edgeStyle=elbowEdgeStyle;elbow=vertical;curved=0;rounded=0;dashed=1;endArrow=block;" edge="1" parent="1">
          <mxGeometry relative="1" as="geometry">
            <Array as="points">
              <mxPoint x="702" y="637" />
            </Array>
            <mxPoint x="653.0014285714287" y="637" as="sourcePoint" />
            <mxPoint x="498" y="637" as="targetPoint" />
          </mxGeometry>
        </mxCell>
        <mxCell id="3PqMV9A3EtNK-paQD4V4-81" value="&lt;span style=&quot;color: rgb(0, 0, 0); font-family: Helvetica; font-size: 12px; font-style: normal; font-variant-ligatures: normal; font-variant-caps: normal; font-weight: 400; letter-spacing: normal; orphans: 2; text-align: center; text-indent: 0px; text-transform: none; widows: 2; word-spacing: 0px; -webkit-text-stroke-width: 0px; white-space: normal; background-color: rgb(255, 255, 255); text-decoration-thickness: initial; text-decoration-style: initial; text-decoration-color: initial; display: inline !important; float: none;&quot;&gt;[jika data tidak valid]&lt;/span&gt;" style="text;whiteSpace=wrap;html=1;" vertex="1" parent="1">
          <mxGeometry x="187" y="594" width="112.62" height="22.6" as="geometry" />
        </mxCell>
        <mxCell id="3PqMV9A3EtNK-paQD4V4-82" value="" style="rounded=0;whiteSpace=wrap;html=1;" vertex="1" parent="1">
          <mxGeometry x="299.62" y="127" width="9" height="526" as="geometry" />
        </mxCell>
        <mxCell id="3PqMV9A3EtNK-paQD4V4-83" value="" style="rounded=0;whiteSpace=wrap;html=1;" vertex="1" parent="1">
          <mxGeometry x="498" y="177" width="9" height="51" as="geometry" />
        </mxCell>
        <mxCell id="3PqMV9A3EtNK-paQD4V4-84" value="" style="rounded=0;whiteSpace=wrap;html=1;" vertex="1" parent="1">
          <mxGeometry x="699" y="232" width="9" height="51" as="geometry" />
        </mxCell>
      </root>
    </mxGraphModel>
  </diagram>
</mxfile>
